# xmcd
#
# Track frame offsets: 
#        150
#        17402
#        36273
#        54210
#        75200
#        91095
#        114490
#        133380
#        152266
#        171092
#        189463
#        207054
#
# Disc length: 3077 seconds
#
# Revision: 0
# Processed by: cddbd v1.5.2PL0 Copyright (c) Steve Scherf et al.
# Submitted via: ExactAudioCopy v1.0b4
#
DISCID=830c030c
DTITLE=Kenny ''Beedy Eyes'' Smith and the House Bumpers - Drop The Hamme
DTITLE=r
DYEAR=2019
DGENRE=Blues
TTITLE0=Head Pounder
TTITLE1=Hey Daddy
TTITLE2=Drop The Hammer
TTITLE3=Scratchin' Your Head
TTITLE4=What In The World
TTITLE5=No Need Brotha'
TTITLE6=Puppet On A String
TTITLE7=Keep On Pretending
TTITLE8=Living Fast
TTITLE9=Second Hand Woman
TTITLE10=One Big Frown
TTITLE11=Moment Of Silence
EXTD=
EXTT0=
EXTT1=
EXTT2=
EXTT3=
EXTT4=
EXTT5=
EXTT6=
EXTT7=
EXTT8=
EXTT9=
EXTT10=
EXTT11=
PLAYORDER=
